# xmcd CD database file
#
# Track frame offsets:
#	150
#	43838
#	82043
#	102628
#	138793
#	188163
#	228505
#	269428
#
# Disc length: 3763 seconds
#
# Revision: 0
# Processed by: cddbd v1.5.1PL0 Copyright (c) Steve Scherf et al.
# Submitted via: CDex 1.51
#
DISCID=6f0eb108
DTITLE=Sonny CRISS - Live In Italy (w. The George Arvanitas Trio)
DYEAR=1974
DGENRE=Jazz
TTITLE0=Tin Tin Deo
TTITLE1=Lover Man
TTITLE2=Sonny's Blues
TTITLE3=Summertime
TTITLE4=Willow Weep For Me
TTITLE5=Sunny
TTITLE6=Hooti's Blues
TTITLE7=Untitled Blues
EXTD=YEAR: 1974
EXTT0=
EXTT1=
EXTT2=
EXTT3=
EXTT4=
EXTT5=
EXTT6=
EXTT7=
PLAYORDER=
